<svg width="128" height="128" viewBox="0 0 128 128" fill="none" xmlns="http://www.w3.org/2000/svg">
  <g stroke="#111111" stroke-width="8" stroke-linecap="round" stroke-linejoin="round">
    <path d="M64 14L109 40V90L64 116L19 90V40L64 14Z" fill="#55B84F"/>
    <path d="M64 14V116"/>
    <path d="M19 40L64 66L109 40"/>
    <path d="M28 36L49 49L64 38L83 50L100 40"/>
    <path d="M35 49V73L53 77"/>
    <path d="M93 49V73L75 77"/>
    <path d="M28 76L43 79"/>
    <path d="M100 76L85 79"/>
    <path d="M43 79L50 91"/>
    <path d="M85 79L78 91"/>
  </g>
  <circle cx="64" cy="38" r="6" fill="#55B84F" stroke="#111111" stroke-width="8"/>
  <circle cx="53" cy="77" r="6" fill="#55B84F" stroke="#111111" stroke-width="8"/>
  <circle cx="75" cy="77" r="6" fill="#55B84F" stroke="#111111" stroke-width="8"/>
  <circle cx="50" cy="91" r="6" fill="#55B84F" stroke="#111111" stroke-width="8"/>
  <circle cx="78" cy="91" r="6" fill="#55B84F" stroke="#111111" stroke-width="8"/>
</svg>
