<svg width="128" height="128" viewBox="0 0 128 128" fill="none" xmlns="http://www.w3.org/2000/svg">
  <rect width="128" height="128" rx="28" fill="#E2E8F0"/>
  <path d="M74.4 22C57.2 22 43.2 36 43.2 53.2V58.4H33.6C27.192 58.4 22 63.592 22 70C22 76.408 27.192 81.6 33.6 81.6H43.2V86.8C43.2 104 57.2 118 74.4 118C91.6 118 105.6 104 105.6 86.8C105.6 69.6 91.6 55.6 74.4 55.6H64.8V53.2C64.8 47.72 68.92 43.6 74.4 43.6C79.88 43.6 84 47.72 84 53.2V57.2H105.6V53.2C105.6 36 91.6 22 74.4 22Z" fill="#0F172A"/>
  <circle cx="74.4" cy="86.8" r="10.8" fill="#38BDF8"/>
</svg>
